<svg width="26" height="25" viewBox="0 0 26 25" fill="none" xmlns="http://www.w3.org/2000/svg">
<path fill-rule="evenodd" clip-rule="evenodd" d="M0.486938 7.93198V24.1318H5.91956V7.93198H0.486938ZM1.20569 4.84165C1.73547 5.36826 2.45398 5.66404 3.20325 5.66404C3.60107 5.70896 4.00391 5.66978 4.3855 5.54905C4.76709 5.42844 5.11865 5.22898 5.41724 4.96397C5.71594 4.69883 5.95483 4.374 6.11853 4.01084C6.2821 3.64756 6.3667 3.25413 6.3667 2.85606C6.3667 2.45811 6.2821 2.06467 6.11853 1.70139C5.99585 1.42905 5.83093 1.17844 5.63025 0.958352C5.56311 0.884865 5.49207 0.814675 5.41724 0.748269C5.11865 0.483132 4.76709 0.283791 4.3855 0.163186C4.00391 0.042458 3.60107 0.00327345 3.20325 0.0481953C2.45398 0.0481953 1.73547 0.343972 1.20569 0.870583C0.675903 1.39719 0.378296 2.11143 0.378296 2.85606C0.378296 3.60081 0.675903 4.31504 1.20569 4.84165ZM20.0804 24.1318H25.5131V14.808C25.5131 9.822 22.8873 7.5001 19.2656 7.5001C18.2778 7.46372 17.299 7.69602 16.4342 8.17185C15.5695 8.64756 14.8517 9.34885 14.3582 10.2001V7.91404H8.92554V24.1137H14.3582V15.114C14.3361 14.6686 14.3976 14.223 14.5392 13.7999C14.7466 13.2287 15.125 12.7345 15.6237 12.3836C16.1223 12.0329 16.717 11.8424 17.328 11.838C19.3018 11.838 20.0804 13.26 20.0804 15.438V24.1318Z" fill="white"/>
</svg>
